#Comment line ignore any data following # character 
#Hierarchical Translation and Rotation (.htr) file 
[Header]	
#Header keywords are followed by a single value 
FileType HTR		#Single word string
DataType HTRS		#Translation followed by rotation and scale data
FileVersion 1		#integer
NumSegments 84		#integer
NumFrames 2		#integer
DataFrameRate 30		#integer, data frame rate in this file
EulerRotationOrder ZYX
CalibrationUnits mm
RotationUnits Degrees
GlobalAxisofGravity Y
BoneLengthAxis Y
ScaleFactor 1.00
[SegmentNames&Hierarchy]
#CHILD	PARENT
MASTER GLOBAL
root MASTER
chest root
L_mid_tent01 root
R_mid_tent01 root
spine01 root
Bip01_Neck chest
L_humerus chest
R_humerus chest
weapon_bone chest
Bip01_Head Bip01_Neck
eye_left_bone Bip01_Head
eye_right_bone Bip01_Head
L_forearm L_humerus
L_front_hand L_forearm
L_weapon_bone L_forearm
L_front_hand01_01 L_front_hand
L_front_hand02_01 L_front_hand
L_front_hand03_01 L_front_hand
L_front_hand01_02 L_front_hand01_01
L_front_hand02_02 L_front_hand02_01
L_front_hand03_02 L_front_hand03_01
R_forearm R_humerus
R_front_hand R_forearm
R_weapon_bone R_forearm
R_front_hand01_01 R_front_hand
R_front_hand02_01 R_front_hand
R_front_hand03_01 R_front_hand
R_front_hand01_02 R_front_hand01_01
R_front_hand02_02 R_front_hand02_01
R_front_hand03_02 R_front_hand03_01
null_rope01_connect L_mid_tent01
Rope1_Seg01 null_rope01_connect
Rope1_Seg02 Rope1_Seg01
Rope1_Seg03 Rope1_Seg02
Rope1_Seg04 Rope1_Seg03
Rope1_Seg05 Rope1_Seg04
Rope1_Seg06 Rope1_Seg05
Rope1_Seg07 Rope1_Seg06
Rope1_Seg09 Rope1_Seg07
L_mid_hand01 Rope1_Seg09
L_mid_hand02 Rope1_Seg09
L_mid_hand03 Rope1_Seg09
null_rope02_connect R_mid_tent01
Rope2_Seg01 null_rope02_connect
Rope2_Seg02 Rope2_Seg01
Rope2_Seg03 Rope2_Seg02
Rope2_Seg04 Rope2_Seg03
Rope2_Seg05 Rope2_Seg04
Rope2_Seg06 Rope2_Seg05
Rope2_Seg07 Rope2_Seg06
Rope2_Seg09 Rope2_Seg07
R_mid_hand01 Rope2_Seg09
R_mid_hand02 Rope2_Seg09
R_mid_hand03 Rope2_Seg09
spine02 spine01
spine03 spine02
pelvis spine03
null_rope03_connect pelvis
null_rope04_connect pelvis
Rope3_Seg01 null_rope03_connect
Rope3_Seg02 Rope3_Seg01
Rope3_Seg03 Rope3_Seg02
Rope3_Seg04 Rope3_Seg03
Rope3_Seg05 Rope3_Seg04
Rope3_Seg06 Rope3_Seg05
Rope3_Seg07 Rope3_Seg06
Rope3_Seg08 Rope3_Seg07
Rope3_Seg09 Rope3_Seg08
R_rear_hand01 Rope3_Seg09
R_rear_hand02 Rope3_Seg09
R_rear_hand03 Rope3_Seg09
Rope4_Seg01 null_rope04_connect
Rope4_Seg02 Rope4_Seg01
Rope4_Seg03 Rope4_Seg02
Rope4_Seg04 Rope4_Seg03
Rope4_Seg05 Rope4_Seg04
Rope4_Seg06 Rope4_Seg05
Rope4_Seg07 Rope4_Seg06
Rope4_Seg08 Rope4_Seg07
Rope4_Seg09 Rope4_Seg08
L_rear_hand01 Rope4_Seg09
L_rear_hand02 Rope4_Seg09
L_rear_hand03 Rope4_Seg09
[BasePosition]
#SegmentName Tx, Ty, Tz, Rx, Ry, Rz, BoneLength
MASTER 0.000000 0.000000 0.000000 -90.000000 0.000000 0.000000 10.000000 
root 0.000000 0.000000 0.000000 0.000000 0.000000 0.000000 10.000000 
chest 0.000000 0.000000 0.000000 0.000000 0.000000 0.000000 10.000000 
L_mid_tent01 0.000000 0.000000 0.000000 0.000000 0.000000 0.000000 10.000000 
R_mid_tent01 0.000000 0.000000 0.000000 0.000000 0.000000 0.000000 10.000000 
spine01 0.000000 0.000000 0.000000 0.000000 0.000000 0.000000 10.000000 
Bip01_Neck 0.000000 0.000000 0.000000 0.000000 0.000000 0.000000 10.000000 
L_humerus 0.000000 0.000000 0.000000 0.000000 0.000000 0.000000 10.000000 
R_humerus 0.000000 0.000000 0.000000 0.000000 0.000000 0.000000 10.000000 
weapon_bone 0.000000 0.000000 0.000000 0.000000 0.000000 0.000000 10.000000 
Bip01_Head 0.000000 0.000000 0.000000 0.000000 0.000000 0.000000 10.000000 
eye_left_bone 0.000000 0.000000 0.000000 0.000000 0.000000 0.000000 10.000000 
eye_right_bone 0.000000 0.000000 0.000000 0.000000 0.000000 0.000000 10.000000 
L_forearm 0.000000 0.000000 0.000000 0.000000 0.000000 0.000000 10.000000 
L_front_hand 0.000000 0.000000 0.000000 0.000000 0.000000 0.000000 10.000000 
L_weapon_bone 0.000000 0.000000 0.000000 0.000000 0.000000 0.000000 10.000000 
L_front_hand01_01 0.000000 0.000000 0.000000 0.000000 0.000000 0.000000 10.000000 
L_front_hand02_01 0.000000 0.000000 0.000000 0.000000 0.000000 0.000000 10.000000 
L_front_hand03_01 0.000000 0.000000 0.000000 0.000000 0.000000 0.000000 10.000000 
L_front_hand01_02 0.000000 0.000000 0.000000 0.000000 0.000000 0.000000 10.000000 
L_front_hand02_02 0.000000 0.000000 0.000000 0.000000 0.000000 0.000000 10.000000 
L_front_hand03_02 0.000000 0.000000 0.000000 0.000000 0.000000 0.000000 10.000000 
R_forearm 0.000000 0.000000 0.000000 0.000000 0.000000 0.000000 10.000000 
R_front_hand 0.000000 0.000000 0.000000 0.000000 0.000000 0.000000 10.000000 
R_weapon_bone 0.000000 0.000000 0.000000 0.000000 0.000000 0.000000 10.000000 
R_front_hand01_01 0.000000 0.000000 0.000000 0.000000 0.000000 0.000000 10.000000 
R_front_hand02_01 0.000000 0.000000 0.000000 0.000000 0.000000 0.000000 10.000000 
R_front_hand03_01 0.000000 0.000000 0.000000 0.000000 0.000000 0.000000 10.000000 
R_front_hand01_02 0.000000 0.000000 0.000000 0.000000 0.000000 0.000000 10.000000 
R_front_hand02_02 0.000000 0.000000 0.000000 0.000000 0.000000 0.000000 10.000000 
R_front_hand03_02 0.000000 0.000000 0.000000 0.000000 0.000000 0.000000 10.000000 
null_rope01_connect 0.000000 0.000000 0.000000 0.000000 0.000000 0.000000 10.000000 
Rope1_Seg01 0.000000 0.000000 0.000000 0.000000 0.000000 0.000000 10.000000 
Rope1_Seg02 0.000000 0.000000 0.000000 0.000000 0.000000 0.000000 10.000000 
Rope1_Seg03 0.000000 0.000000 0.000000 0.000000 0.000000 0.000000 10.000000 
Rope1_Seg04 0.000000 0.000000 0.000000 0.000000 0.000000 0.000000 10.000000 
Rope1_Seg05 0.000000 0.000000 0.000000 0.000000 0.000000 0.000000 10.000000 
Rope1_Seg06 0.000000 0.000000 0.000000 0.000000 0.000000 0.000000 10.000000 
Rope1_Seg07 0.000000 0.000000 0.000000 0.000000 0.000000 0.000000 10.000000 
Rope1_Seg09 0.000000 0.000000 0.000000 0.000000 0.000000 0.000000 10.000000 
L_mid_hand01 0.000000 0.000000 0.000000 0.000000 0.000000 0.000000 10.000000 
L_mid_hand02 0.000000 0.000000 0.000000 0.000000 0.000000 0.000000 10.000000 
L_mid_hand03 0.000000 0.000000 0.000000 0.000000 0.000000 0.000000 10.000000 
null_rope02_connect 0.000000 0.000000 0.000000 0.000000 0.000000 0.000000 10.000000 
Rope2_Seg01 0.000000 0.000000 0.000000 0.000000 0.000000 0.000000 10.000000 
Rope2_Seg02 0.000000 0.000000 0.000000 0.000000 0.000000 0.000000 10.000000 
Rope2_Seg03 0.000000 0.000000 0.000000 0.000000 0.000000 0.000000 10.000000 
Rope2_Seg04 0.000000 0.000000 0.000000 0.000000 0.000000 0.000000 10.000000 
Rope2_Seg05 0.000000 0.000000 0.000000 0.000000 0.000000 0.000000 10.000000 
Rope2_Seg06 0.000000 0.000000 0.000000 0.000000 0.000000 0.000000 10.000000 
Rope2_Seg07 0.000000 0.000000 0.000000 0.000000 0.000000 0.000000 10.000000 
Rope2_Seg09 0.000000 0.000000 0.000000 0.000000 0.000000 0.000000 10.000000 
R_mid_hand01 0.000000 0.000000 0.000000 0.000000 0.000000 0.000000 10.000000 
R_mid_hand02 0.000000 0.000000 0.000000 0.000000 0.000000 0.000000 10.000000 
R_mid_hand03 0.000000 0.000000 0.000000 0.000000 0.000000 0.000000 10.000000 
spine02 0.000000 0.000000 0.000000 0.000000 0.000000 0.000000 10.000000 
spine03 0.000000 0.000000 0.000000 0.000000 0.000000 0.000000 10.000000 
pelvis 0.000000 0.000000 0.000000 0.000000 0.000000 0.000000 10.000000 
null_rope03_connect 0.000000 0.000000 0.000000 0.000000 0.000000 0.000000 10.000000 
null_rope04_connect 0.000000 0.000000 0.000000 0.000000 0.000000 0.000000 10.000000 
Rope3_Seg01 0.000000 0.000000 0.000000 0.000000 0.000000 0.000000 10.000000 
Rope3_Seg02 0.000000 0.000000 0.000000 0.000000 0.000000 0.000000 10.000000 
Rope3_Seg03 0.000000 0.000000 0.000000 0.000000 0.000000 0.000000 10.000000 
Rope3_Seg04 0.000000 0.000000 0.000000 0.000000 0.000000 0.000000 10.000000 
Rope3_Seg05 0.000000 0.000000 0.000000 0.000000 0.000000 0.000000 10.000000 
Rope3_Seg06 0.000000 0.000000 0.000000 0.000000 0.000000 0.000000 10.000000 
Rope3_Seg07 0.000000 0.000000 0.000000 0.000000 0.000000 0.000000 10.000000 
Rope3_Seg08 0.000000 0.000000 0.000000 0.000000 0.000000 0.000000 10.000000 
Rope3_Seg09 0.000000 0.000000 0.000000 0.000000 0.000000 0.000000 10.000000 
R_rear_hand01 0.000000 0.000000 0.000000 0.000000 0.000000 0.000000 10.000000 
R_rear_hand02 0.000000 0.000000 0.000000 0.000000 0.000000 0.000000 10.000000 
R_rear_hand03 0.000000 0.000000 0.000000 0.000000 0.000000 0.000000 10.000000 
Rope4_Seg01 0.000000 0.000000 0.000000 0.000000 0.000000 0.000000 10.000000 
Rope4_Seg02 0.000000 0.000000 0.000000 0.000000 0.000000 0.000000 10.000000 
Rope4_Seg03 0.000000 0.000000 0.000000 0.000000 0.000000 0.000000 10.000000 
Rope4_Seg04 0.000000 0.000000 0.000000 0.000000 0.000000 0.000000 10.000000 
Rope4_Seg05 0.000000 0.000000 0.000000 0.000000 0.000000 0.000000 10.000000 
Rope4_Seg06 0.000000 0.000000 0.000000 0.000000 0.000000 0.000000 10.000000 
Rope4_Seg07 0.000000 0.000000 0.000000 0.000000 0.000000 0.000000 10.000000 
Rope4_Seg08 0.000000 0.000000 0.000000 0.000000 0.000000 0.000000 10.000000 
Rope4_Seg09 0.000000 0.000000 0.000000 0.000000 0.000000 0.000000 10.000000 
L_rear_hand01 0.000000 0.000000 0.000000 0.000000 0.000000 0.000000 10.000000 
L_rear_hand02 0.000000 0.000000 0.000000 0.000000 0.000000 0.000000 10.000000 
L_rear_hand03 0.000000 0.000000 0.000000 0.000000 0.000000 0.000000 10.000000 
#Beginning of Data. Separated by tabs
#Fr	Tx	Ty	Tz	Rx	Ry	Rz	SF
[MASTER]
12 -0.000492 2669.343018 313.075531 0.001660 0.001660 0.001660 2687.639893
13 -0.000530 2846.040527 362.926636 0.001660 0.001660 0.001660 2869.087402
[root]
12 -36.519958 -44.201660 1499.161255 -84.091736 -4.369167 -93.023651 1500.257324
13 -37.522301 -48.080444 1501.706909 -85.374535 -5.468545 -92.938347 1502.944946
[chest]
12 -84.512650 -34.090519 0.000000 -2.034194 0.548847 176.020538 91.129311
13 -84.512650 -34.090519 0.000000 -2.013278 0.618990 177.024170 91.129311
[L_mid_tent01]
12 27.299128 22.179192 -249.918716 -10.300378 5.035400 15.731009 252.381714
13 27.299131 22.179195 -249.918716 -11.145813 5.635828 15.552363 252.381714
[R_mid_tent01]
12 23.228794 24.509907 226.238495 177.187363 -6.841336 24.198795 228.744751
13 23.228794 24.509907 226.238495 178.362106 -7.588700 24.301588 228.744751
[spine01]
12 -0.361383 -0.195265 0.000000 0.002053 0.001137 32.040218 0.410763
13 -0.361383 -0.195265 0.000000 0.002050 0.001143 31.695620 0.410763
[Bip01_Neck]
12 165.484543 71.581718 0.000119 176.643677 -1.657967 43.431911 180.302734
13 165.484543 71.581718 0.000119 176.643677 -1.657967 43.431911 180.302734
[L_humerus]
12 -13.983130 -135.272980 -120.471481 -7.045599 63.816330 82.793159 181.680161
13 -13.983130 -135.272980 -120.471481 -7.014060 63.925846 82.834846 181.680161
[R_humerus]
12 -13.983309 -135.273102 125.287651 25.631336 -64.604073 70.092361 184.909012
13 -13.983309 -135.273102 125.287651 25.659700 -64.714630 70.063248 184.909012
[weapon_bone]
12 235.964890 -300.705902 0.000000 0.000000 -89.951546 -128.212341 382.234833
13 235.964890 -300.705902 0.000000 0.000000 -89.951546 -128.212341 382.234833
[Bip01_Head]
12 213.629745 185.198517 18.453959 4.440999 -1.420068 -43.901424 283.331451
13 213.583679 185.326843 16.794910 4.438828 -1.308844 -43.901844 283.277435
[eye_left_bone]
12 -24.626970 125.451866 -64.772606 0.000000 -90.000000 -99.840431 143.318359
13 -24.626970 125.451866 -64.772606 0.000000 -90.000000 -99.840431 143.318359
[eye_right_bone]
12 -24.626970 125.451866 64.327362 0.000000 -89.965736 80.156380 143.117676
13 -24.626970 125.451866 64.327362 0.000000 -89.965736 80.156380 143.117676
[L_forearm]
12 322.776093 0.000000 -0.000119 0.000430 -0.002307 -111.125786 322.776093
13 322.776093 0.000000 -0.000119 0.000430 -0.002308 -111.101799 322.776093
[L_front_hand]
12 241.149185 -0.042021 -3.300071 -178.667953 -1.835447 -27.422350 241.171753
13 241.149185 -0.042021 -3.300071 -178.667953 -1.835447 -27.422344 241.171753
[L_weapon_bone]
12 156.183838 0.000000 0.000000 0.000014 0.000007 0.000001 156.183838
13 156.183838 0.000000 0.000000 0.000014 0.000007 0.000001 156.183838
[L_front_hand01_01]
12 86.095154 20.947098 -0.655860 -0.274633 -0.532782 65.272827 88.609184
13 86.095154 20.947098 -0.655860 -0.273295 -0.533469 64.985298 88.609184
[L_front_hand02_01]
12 86.935165 -11.437475 24.513514 141.090271 -54.445614 -45.572052 91.046425
13 86.935165 -11.437475 24.513514 140.772385 -54.262844 -45.183468 91.046425
[L_front_hand03_01]
12 86.637497 -14.123976 -20.424902 -141.476303 52.677540 -47.637543 90.126129
13 86.637497 -14.123976 -20.424902 -141.183044 52.494118 -47.265888 90.126129
[L_front_hand01_02]
12 71.020905 -0.000179 0.000030 0.000315 -0.002326 -105.419182 71.020905
13 71.020905 -0.000179 0.000030 0.000315 -0.002326 -105.414528 71.020905
[L_front_hand02_02]
12 71.020927 -0.000119 0.000060 0.000315 -0.002326 -105.419182 71.020927
13 71.020927 -0.000119 0.000060 0.000315 -0.002326 -105.414528 71.020927
[L_front_hand03_02]
12 71.020905 -0.000060 0.000060 0.000315 -0.002326 -105.419182 71.020905
13 71.020905 -0.000060 0.000060 0.000315 -0.002326 -105.414528 71.020905
[R_forearm]
12 322.776428 -0.000060 0.000030 0.201095 0.068205 -109.794945 322.776428
13 322.776428 -0.000060 0.000030 0.201122 0.068125 -109.749588 322.776428
[R_front_hand]
12 238.847015 -0.006795 2.210259 -2.635298 -10.645461 -26.312506 238.857239
13 238.847015 -0.006795 2.210259 -2.635298 -10.645460 -26.312500 238.857239
[R_weapon_bone]
12 155.664093 0.002503 -0.000030 0.003487 0.001180 -90.988930 155.664078
13 155.664093 0.002503 -0.000030 0.003487 0.001180 -90.988930 155.664078
[R_front_hand01_01]
12 87.624611 14.231146 22.918642 -140.500641 -54.097107 44.955364 91.683487
13 87.624611 14.231146 22.918642 -139.406311 -53.422413 43.599293 91.683487
[R_front_hand02_01]
12 89.356956 14.367283 -19.491137 141.255966 52.517570 47.591045 92.579636
13 89.356956 14.367283 -19.491137 140.210251 51.852013 46.267590 92.579636
[R_front_hand03_01]
12 87.286232 -22.307278 -0.143439 0.080269 -0.445286 -64.968231 90.091743
13 87.286232 -22.307278 -0.143439 0.071981 -0.448622 -63.915920 90.091743
[R_front_hand01_02]
12 71.020905 0.000060 0.000119 0.002323 -0.000334 106.381714 71.020905
13 71.020905 0.000060 0.000119 0.002323 -0.000334 106.381706 71.020905
[R_front_hand02_02]
12 71.020844 -0.000030 -0.000119 0.002323 -0.000334 106.381714 71.020836
13 71.020844 -0.000030 -0.000119 0.002323 -0.000334 106.381706 71.020836
[R_front_hand03_02]
12 71.020905 0.000000 0.000030 0.002323 -0.000334 106.381714 71.020905
13 71.020905 0.000000 0.000030 0.002323 -0.000334 106.381706 71.020905
[null_rope01_connect]
12 328.732483 0.000000 -0.000238 -133.939606 -82.484642 -148.116638 328.732483
13 328.732483 0.000000 -0.000238 -140.903397 -80.492668 -140.017197 328.732483
[Rope1_Seg01]
12 -0.000014 0.000024 0.000056 -6.670946 14.539029 -103.540268 0.000063
13 -0.000015 0.000023 0.000061 4.988905 14.753560 -109.802956 0.000067
[Rope1_Seg02]
12 139.999863 -0.000179 0.000000 12.422143 3.293115 -7.419761 139.999863
13 139.999863 -0.000179 0.000000 20.840847 1.579096 -6.380225 139.999863
[Rope1_Seg03]
12 139.999924 0.000060 -0.000060 65.864761 1.162562 -10.204447 139.999924
13 139.999924 0.000060 -0.000060 65.155426 -2.019769 -8.648436 139.999924
[Rope1_Seg04]
12 139.999924 -0.000060 -0.000119 54.010593 -14.751590 -6.692493 139.999924
13 139.999924 -0.000060 -0.000119 35.109699 -15.646659 -1.172270 139.999924
[Rope1_Seg05]
12 139.999832 0.000119 -0.000060 3.805742 6.762512 -8.605659 139.999832
13 139.999832 0.000119 -0.000060 1.227379 8.950993 -10.599018 139.999832
[Rope1_Seg06]
12 139.999954 0.000119 -0.000060 178.879303 15.258106 -17.303484 139.999954
13 139.999954 0.000119 -0.000060 -178.680664 16.954470 -18.061152 139.999954
[Rope1_Seg07]
12 139.999985 0.000060 0.000000 -1.282787 -5.542596 6.851677 139.999985
13 139.999985 0.000060 0.000000 -1.351996 -5.404893 6.813379 139.999985
[Rope1_Seg09]
12 121.602913 0.000119 -0.000089 -89.793175 -1.359789 0.847147 121.602913
13 121.602913 0.000119 -0.000089 -89.793175 -1.359789 0.847147 121.602913
[L_mid_hand01]
12 103.859421 1.038730 8.195221 111.216125 -46.770248 -16.325296 104.187431
13 103.859421 1.038730 8.195221 112.987701 -50.601227 -18.681456 104.187431
[L_mid_hand02]
12 105.572853 -4.139662 -10.864139 -150.384232 34.904903 -44.592545 106.211075
13 105.572853 -4.139662 -10.864139 -153.018723 36.866009 -49.082401 106.211075
[L_mid_hand03]
12 104.641464 17.579376 -3.913581 -12.781254 13.855400 50.452682 106.179977
13 104.641464 17.579376 -3.913581 -11.755013 14.733717 54.618225 106.179977
[null_rope02_connect]
12 328.732849 0.000179 -0.000119 -138.762787 82.665482 -29.625998 328.732849
13 328.732849 0.000179 -0.000119 -136.186401 82.435974 -27.909918 328.732849
[Rope2_Seg01]
12 0.000052 0.000097 0.000000 65.142540 -7.528858 -65.971848 0.000110
13 0.000053 0.000092 0.000000 52.471092 -7.111462 -56.821754 0.000106
[Rope2_Seg02]
12 139.999741 -0.000060 -0.000119 13.274180 1.183903 -9.451958 139.999756
13 139.999741 -0.000060 -0.000119 20.575748 -0.146008 -11.226606 139.999756
[Rope2_Seg03]
12 140.000107 0.000030 0.000000 19.103142 -1.172385 -11.014982 140.000107
13 140.000107 0.000030 0.000000 26.406595 -4.979426 -12.922847 140.000107
[Rope2_Seg04]
12 139.999802 0.000000 -0.000060 30.078152 -7.104304 -16.611828 139.999802
13 139.999802 0.000000 -0.000060 27.923471 -16.121662 -15.795603 139.999802
[Rope2_Seg05]
12 139.999985 -0.000060 0.000119 6.543143 -4.864305 -3.068305 139.999985
13 139.999985 -0.000060 0.000119 3.359710 -5.138298 -1.451741 139.999985
[Rope2_Seg06]
12 139.999893 -0.000030 -0.000119 -12.972387 8.065174 6.203186 139.999893
13 139.999893 -0.000030 -0.000119 -9.626626 12.289673 3.551419 139.999893
[Rope2_Seg07]
12 139.999893 0.000060 -0.000060 -10.239646 4.264482 5.291253 139.999893
13 139.999893 0.000060 -0.000060 -8.639525 6.926151 3.399000 139.999893
[Rope2_Seg09]
12 121.338966 0.000089 -0.000060 33.793236 -1.359788 -0.847141 121.338966
13 121.338966 0.000089 -0.000060 33.793236 -1.359788 -0.847141 121.338966
[R_mid_hand01]
12 104.680779 11.144459 -10.335981 -36.922554 32.243565 38.107742 105.778534
13 104.680779 11.144459 -10.335981 -37.204079 31.906813 37.576260 105.778534
[R_mid_hand02]
12 104.070427 2.443552 8.231699 70.193451 -42.958271 14.324638 104.424065
13 104.070427 2.443552 8.231699 70.367462 -42.427391 14.067809 104.424065
[R_mid_hand03]
12 106.028137 -11.221827 -5.996406 -170.013962 12.325404 -47.779564 106.788818
13 106.028137 -11.221827 -5.996406 -169.893616 12.226661 -47.211018 106.788818
[spine02]
12 129.756927 0.001550 0.000119 0.530894 -4.024815 -15.394449 129.756927
13 129.756927 0.001550 0.000119 0.529137 -4.025046 -15.344450 129.756927
[spine03]
12 78.614006 0.081579 -4.899005 1.998664 3.779978 18.007189 78.766541
13 78.613998 0.081573 -4.899004 1.998393 3.782770 17.987198 78.766541
[pelvis]
12 169.435242 0.051022 0.000000 -0.070254 -0.177766 17.218151 169.435257
13 169.435242 0.051022 0.000000 -0.070154 -0.177806 17.153118 169.435257
[null_rope03_connect]
12 -1.257226 -2.466202 137.391083 -21.586267 -82.285202 64.245918 137.418976
13 -1.257226 -2.466202 137.391083 -24.894724 -83.507614 69.013741 137.418976
[null_rope04_connect]
12 -1.259640 -2.480268 -137.844437 -21.586267 -82.285202 64.245918 137.872513
13 -1.259640 -2.480268 -137.844437 -24.894724 -83.507614 69.013741 137.872513
[Rope3_Seg01]
12 0.000010 0.000038 -0.000114 -132.641495 20.531097 -80.932808 0.000121
13 0.000010 0.000038 -0.000114 -132.265228 20.143911 -79.898819 0.000121
[Rope3_Seg02]
12 139.999924 -0.000119 0.000060 0.469811 3.569788 2.158967 139.999924
13 139.999924 -0.000119 0.000060 0.591263 4.633329 2.946276 139.999924
[Rope3_Seg03]
12 139.999924 -0.000119 0.000119 0.655580 3.911873 2.335226 139.999924
13 139.999924 -0.000119 0.000119 0.885590 5.055028 3.194718 139.999924
[Rope3_Seg04]
12 139.999924 0.000119 0.000000 1.112168 6.784240 7.251511 139.999924
13 139.999924 0.000119 0.000000 1.967879 8.983262 8.797726 139.999924
[Rope3_Seg05]
12 139.999924 -0.000238 0.000060 1.526705 3.699414 0.946695 139.999924
13 139.999924 -0.000238 0.000060 1.866938 3.707263 0.601522 139.999924
[Rope3_Seg06]
12 139.999893 -0.000119 -0.000060 2.170124 -4.629323 -12.805522 139.999893
13 139.999893 -0.000119 -0.000060 1.883060 -7.057788 -13.455723 139.999893
[Rope3_Seg07]
12 139.999771 0.000060 -0.000119 1.282361 -4.297915 -10.395018 139.999771
13 139.999771 0.000060 -0.000119 1.225928 -5.863600 -10.475596 139.999771
[Rope3_Seg08]
12 139.999985 -0.000060 0.000000 0.660743 -1.810912 -5.045825 139.999985
13 139.999985 -0.000060 0.000000 0.680341 -2.508506 -4.986492 139.999985
[Rope3_Seg09]
12 90.185997 -0.000179 -0.000060 89.793228 -1.359877 -0.847183 90.185997
13 90.185997 -0.000179 -0.000060 89.793228 -1.359877 -0.847183 90.185997
[R_rear_hand01]
12 103.366196 -6.073594 -10.757982 -164.755127 19.627697 -40.352161 104.101845
13 103.366196 -6.073594 -10.757982 -165.129318 19.906286 -41.459824 104.101845
[R_rear_hand02]
12 100.509819 12.039542 -7.992327 -30.792652 24.782448 38.141541 101.543350
13 100.509819 12.039542 -7.992327 -30.361929 25.330688 39.162518 101.543350
[R_rear_hand03]
12 101.539970 5.215704 5.435467 82.448349 -41.048256 8.840378 101.819031
13 101.539970 5.215704 5.435467 82.326164 -42.112484 9.027008 101.819031
[Rope4_Seg01]
12 0.000010 0.000038 -0.000114 48.987938 6.251834 -103.139442 0.000121
13 0.000010 0.000038 -0.000114 47.525684 7.049936 -113.501335 0.000121
[Rope4_Seg02]
12 139.999985 0.000060 0.000119 0.195659 6.111470 -1.840293 139.999985
13 139.999985 0.000060 0.000119 0.011508 8.129992 1.673441 139.999985
[Rope4_Seg03]
12 139.999924 0.000000 -0.000238 0.610746 6.486461 -2.103848 139.999924
13 139.999924 0.000000 -0.000238 0.361010 9.161364 1.821783 139.999924
[Rope4_Seg04]
12 139.999985 0.000000 0.000119 1.986267 10.811479 -5.143500 139.999985
13 139.999985 0.000000 0.000119 1.825288 15.503626 1.148723 139.999985
[Rope4_Seg05]
12 139.999802 -0.000060 -0.000119 -0.040847 1.317667 1.034919 139.999802
13 139.999802 -0.000060 -0.000119 -0.107427 3.679838 2.304245 139.999802
[Rope4_Seg06]
12 139.999924 0.000000 0.000060 -3.690651 -8.448578 7.647598 139.999924
13 139.999924 0.000000 0.000060 -3.291244 -10.137675 3.517776 139.999924
[Rope4_Seg07]
12 139.999802 0.000000 0.000000 -1.546436 -5.286095 4.446201 139.999802
13 139.999802 0.000000 0.000000 -1.240173 -6.009994 1.953864 139.999802
[Rope4_Seg08]
12 139.999924 0.000000 0.000119 -2.106405 -2.550014 2.230638 139.999924
13 139.999924 0.000000 0.000119 -1.972546 -2.606379 1.095468 139.999924
[Rope4_Seg09]
12 90.185791 0.000060 0.000060 -135.617828 2.228885 0.850567 90.185791
13 90.185791 0.000060 0.000060 -135.617828 2.228885 0.850567 90.185791
[L_rear_hand01]
12 101.696655 -8.392275 -7.654577 -26.077681 -29.734324 131.595932 102.329041
13 101.696655 -8.392275 -7.654577 -23.837065 -31.497852 127.196877 102.329041
[L_rear_hand02]
12 102.726799 -1.568258 5.773216 80.880577 51.310966 168.995010 102.900848
13 102.726799 -1.568258 5.773216 79.940979 55.428272 167.825531 102.900848
[L_rear_hand03]
12 104.552910 9.721220 -10.420293 -168.606277 -22.023735 -128.845840 105.519653
13 104.552910 9.721220 -10.420293 -170.300186 -22.788525 -124.407036 105.519653
